<svg width="33" height="33" viewBox="0 0 33 33" fill="none" xmlns="http://www.w3.org/2000/svg">
<rect width="32.0467" height="32.0706" rx="8" fill="#3B82F6"/>
<path d="M9.6 13.9956L11.55 14.8206C11.7833 14.3539 12.025 13.9039 12.275 13.4706C12.525 13.0372 12.8 12.6039 13.1 12.1706L11.7 11.8956L9.6 13.9956ZM13.15 16.0706L16 18.8956C16.7 18.6289 17.45 18.2206 18.25 17.6706C19.05 17.1206 19.8 16.4956 20.5 15.7956C21.6667 14.6289 22.5792 13.3331 23.2375 11.9081C23.8958 10.4831 24.1833 9.17056 24.1 7.97056C22.9 7.88723 21.5833 8.17473 20.15 8.83306C18.7167 9.4914 17.4167 10.4039 16.25 11.5706C15.55 12.2706 14.925 13.0206 14.375 13.8206C13.825 14.6206 13.4167 15.3706 13.15 16.0706ZM17.6 14.4456C17.2167 14.0622 17.025 13.5914 17.025 13.0331C17.025 12.4747 17.2167 12.0039 17.6 11.6206C17.9833 11.2372 18.4583 11.0456 19.025 11.0456C19.5917 11.0456 20.0667 11.2372 20.45 11.6206C20.8333 12.0039 21.025 12.4747 21.025 13.0331C21.025 13.5914 20.8333 14.0622 20.45 14.4456C20.0667 14.8289 19.5917 15.0206 19.025 15.0206C18.4583 15.0206 17.9833 14.8289 17.6 14.4456ZM18.075 22.4706L20.175 20.3706L19.9 18.9706C19.4667 19.2706 19.0333 19.5414 18.6 19.7831C18.1667 20.0247 17.7167 20.2622 17.25 20.4956L18.075 22.4706ZM25.9 6.14556C26.2167 8.16223 26.0208 10.1247 25.3125 12.0331C24.6042 13.9414 23.3833 15.7622 21.65 17.4956L22.15 19.9706C22.2167 20.3039 22.2 20.6289 22.1 20.9456C22 21.2622 21.8333 21.5372 21.6 21.7706L17.4 25.9706L15.3 21.0456L11.025 16.7706L6.1 14.6706L10.275 10.4706C10.5083 10.2372 10.7875 10.0706 11.1125 9.97056C11.4375 9.87056 11.7667 9.8539 12.1 9.92056L14.575 10.4206C16.3083 8.68723 18.125 7.46223 20.025 6.74556C21.925 6.0289 23.8833 5.8289 25.9 6.14556ZM7.875 19.9456C8.45833 19.3622 9.17083 19.0664 10.0125 19.0581C10.8542 19.0497 11.5667 19.3372 12.15 19.9206C12.7333 20.5039 13.0208 21.2164 13.0125 22.0581C13.0042 22.8997 12.7083 23.6122 12.125 24.1956C11.7083 24.6122 11.0125 24.9706 10.0375 25.2706C9.0625 25.5706 7.71667 25.8372 6 26.0706C6.23333 24.3539 6.5 23.0081 6.8 22.0331C7.1 21.0581 7.45833 20.3622 7.875 19.9456ZM9.3 21.3456C9.13333 21.5122 8.96667 21.8164 8.8 22.2581C8.63333 22.6997 8.51667 23.1456 8.45 23.5956C8.9 23.5289 9.34583 23.4164 9.7875 23.2581C10.2292 23.0997 10.5333 22.9372 10.7 22.7706C10.9 22.5706 11.0083 22.3289 11.025 22.0456C11.0417 21.7622 10.95 21.5206 10.75 21.3206C10.55 21.1206 10.3083 21.0247 10.025 21.0331C9.74167 21.0414 9.5 21.1456 9.3 21.3456Z" fill="white"/>
</svg>
